<?xml version="1.0" standalone="no"?>
<!DOCTYPE svg PUBLIC "-//W3C//DTD SVG 20010904//EN"
 "http://www.w3.org/TR/2001/REC-SVG-20010904/DTD/svg10.dtd">
<svg version="1.0" xmlns="http://www.w3.org/2000/svg"
 width="365.000000pt" height="365.000000pt" viewBox="0 0 365.000000 365.000000"
 preserveAspectRatio="xMidYMid meet">
<metadata>
Created by potrace 1.14, written by Peter Selinger 2001-2017
</metadata>
<g transform="translate(0.000000,365.000000) scale(0.100000,-0.100000)"
fill="#000000" stroke="none">
<path d="M3100 3640 c0 -5 -9 -10 -20 -10 -11 0 -20 -4 -20 -10 0 -5 -13 -10
-30 -10 -16 0 -44 -9 -62 -20 -18 -11 -41 -20 -50 -20 -10 0 -18 -4 -18 -10 0
-5 -20 -10 -45 -10 -25 0 -45 -4 -45 -10 0 -5 -7 -10 -15 -10 -8 0 -15 -5 -15
-11 0 -5 -4 -8 -9 -4 -5 3 -16 -2 -24 -10 -10 -9 -34 -15 -62 -15 -25 0 -44
-4 -41 -9 7 -11 -41 -24 -56 -15 -7 4 -8 3 -4 -4 8 -14 -24 -32 -58 -32 -14 0
-28 -4 -31 -10 -7 -12 -75 -14 -75 -2 0 4 -15 12 -32 18 -71 25 -104 37 -120
45 -10 5 -28 9 -41 9 -13 0 -32 9 -42 20 -10 11 -28 20 -39 21 -24 0 -119 43
-112 50 13 12 -74 2 -89 -11 -10 -8 -21 -14 -24 -14 -8 2 -21 -1 -61 -15 -19
-7 -39 -13 -45 -14 -5 -1 -17 -10 -26 -19 -11 -12 -31 -18 -63 -18 -25 0 -46
-4 -46 -10 0 -5 -13 -10 -30 -10 -16 0 -30 -4 -30 -9 0 -5 -22 -15 -50 -22
-27 -7 -50 -16 -50 -21 0 -4 -13 -8 -30 -8 -16 0 -30 -4 -30 -10 0 -5 -14 -10
-30 -10 -17 0 -38 -4 -48 -9 -9 -5 -32 -16 -49 -23 -18 -7 -33 -16 -33 -20 0
-5 -18 -8 -40 -8 -22 0 -40 4 -40 9 0 9 -40 28 -75 35 -40 8 -65 19 -65 27 0
5 -7 9 -15 9 -8 0 -23 4 -33 9 -9 5 -37 14 -62 21 -25 7 -53 16 -62 21 -10 5
-29 9 -43 9 -14 0 -25 5 -25 10 0 6 -12 10 -27 10 -28 1 -67 22 -58 32 3 3
-12 8 -33 11 -22 2 -54 11 -73 19 -74 33 -91 38 -119 38 -15 0 -30 -4 -32 -10
-1 -5 -15 -11 -30 -12 -16 -1 -28 -6 -28 -10 0 -4 -9 -8 -20 -8 -11 0 -20 -4
-20 -10 0 -5 -14 -10 -30 -10 -17 0 -39 -9 -50 -20 -11 -11 -33 -20 -49 -20
-17 0 -33 -4 -36 -10 -3 -5 -18 -10 -32 -10 -13 0 -37 -9 -52 -19 -14 -10 -40
-21 -56 -22 -17 -2 -36 -12 -43 -21 -18 -25 -18 -1444 1 -1461 26 -24 58 -37
92 -37 19 0 35 -4 35 -10 0 -5 14 -10 30 -10 17 0 30 -5 30 -11 0 -5 4 -8 9
-5 5 3 14 -1 21 -9 7 -8 25 -15 41 -15 16 0 29 -4 29 -8 0 -4 12 -9 27 -10 15
-1 29 -6 32 -10 10 -15 98 -34 134 -29 19 2 50 12 68 21 17 9 38 16 46 16 7 0
13 5 13 10 0 6 15 10 33 10 17 0 43 9 57 20 14 11 35 20 48 20 12 0 22 5 22
10 0 6 17 10 38 10 21 0 42 4 48 10 5 5 18 11 29 13 11 2 29 8 40 14 19 11 20
21 19 227 l-1 216 39 0 c22 0 37 -4 34 -8 -2 -4 11 -9 30 -10 20 -2 45 -11 55
-21 39 -36 181 -36 207 1 8 10 25 18 42 18 16 0 31 4 34 9 7 11 62 20 75 12 5
-4 11 -100 12 -220 3 -207 3 -213 25 -228 12 -8 33 -15 46 -16 12 0 25 -4 28
-9 3 -4 32 -14 65 -22 32 -9 62 -21 65 -27 4 -6 26 -13 49 -16 22 -3 41 -10
41 -16 0 -6 3 -7 6 -4 4 3 16 0 28 -8 11 -8 33 -15 49 -15 16 0 26 -4 22 -10
-3 -6 4 -10 17 -10 13 0 29 -5 36 -12 7 -7 12 -9 12 -6 0 4 16 0 36 -8 20 -8
38 -13 41 -10 3 3 12 -1 20 -9 8 -8 28 -15 44 -15 16 0 29 -4 29 -10 0 -5 7
-7 15 -4 8 4 15 2 15 -3 0 -10 76 -38 98 -36 6 0 12 -3 12 -8 0 -5 18 -12 40
-15 22 -4 43 -11 46 -15 7 -12 114 -11 114 1 0 6 14 10 30 10 17 0 30 4 30 8
0 7 94 38 110 36 3 0 14 8 24 18 11 10 30 18 43 18 13 0 32 4 43 10 11 5 29
15 40 20 11 5 29 10 40 10 11 0 20 5 20 10 0 6 18 10 40 10 22 0 40 5 40 10 0
6 6 10 14 10 7 0 26 6 41 14 15 8 34 12 41 9 8 -3 14 0 14 6 0 6 9 11 20 11
12 0 30 9 42 20 12 11 35 20 51 20 15 0 37 5 47 10 10 6 30 11 44 12 13 1 22
6 20 10 -3 4 9 8 25 8 17 0 31 5 31 10 0 6 8 10 18 10 22 0 72 22 72 33 0 4
11 7 23 7 13 0 27 3 31 7 4 4 17 8 29 8 12 1 35 5 50 9 l27 6 0 200 0 199 -42
12 c-57 17 -56 16 -74 18 -8 0 -12 6 -9 11 4 6 3 10 -2 9 -44 -8 -68 23 -37
46 11 8 34 15 52 15 17 0 32 5 32 10 0 6 18 10 40 10 l40 0 0 199 0 198 -40 7
c-22 3 -40 11 -40 16 0 6 -3 9 -7 8 -5 -1 -21 5 -38 12 -16 7 -43 15 -59 19
-30 7 -49 31 -24 31 7 0 37 11 66 25 29 13 70 26 92 27 21 2 36 6 33 11 -2 4
1 7 6 7 7 0 11 63 11 190 0 174 -1 190 -17 190 -24 1 -58 27 -42 32 6 2 -5 4
-26 5 -20 1 -42 6 -48 12 -6 6 -19 11 -29 11 -10 0 -18 5 -18 10 0 6 -13 10
-30 10 -16 0 -30 5 -30 10 0 6 -9 10 -20 10 -11 0 -20 5 -20 11 0 5 -4 8 -9 4
-5 -3 -15 1 -23 8 -7 7 -29 14 -48 16 -19 1 -36 7 -38 12 -5 12 -122 11 -122
-1z"/>
<path d="M41 1318 c-20 -7 -21 -15 -21 -221 l0 -214 48 -6 c51 -6 53 -5 56 15
1 7 5 19 9 26 5 7 4 12 -2 12 -7 0 -11 41 -11 118 1 107 2 115 16 97 8 -11 13
-28 11 -37 -3 -10 0 -16 6 -15 5 1 16 -18 23 -43 7 -25 18 -53 24 -63 6 -10 8
-22 4 -28 -3 -5 0 -17 7 -26 7 -8 18 -25 24 -37 10 -20 19 -22 88 -17 10 1 17
9 17 21 0 11 7 37 16 58 10 20 18 43 20 51 1 8 7 17 11 20 5 3 10 17 10 30 1
13 6 27 11 30 6 3 12 17 13 30 2 14 10 26 17 29 10 3 12 -24 10 -127 -1 -72 0
-133 3 -136 3 -2 22 -7 43 -9 30 -4 39 -2 42 12 3 9 6 108 7 219 2 231 7 221
-91 215 -51 -3 -54 -5 -69 -40 -8 -20 -21 -50 -28 -67 -7 -16 -23 -62 -36
-101 -15 -48 -27 -71 -37 -70 -15 3 -42 67 -42 103 0 12 -4 25 -10 28 -5 3
-10 15 -10 26 0 10 -4 19 -8 19 -9 0 -32 59 -32 83 0 9 -3 18 -7 18 -30 5
-116 3 -132 -3z"/>
<path d="M682 1315 c-16 -9 -18 -30 -17 -217 1 -114 4 -211 8 -215 4 -3 70 -6
148 -7 150 0 159 3 159 51 0 32 -12 36 -112 36 -96 0 -112 9 -105 58 6 34 44
48 132 49 73 0 81 2 82 20 1 11 -4 20 -10 20 -8 0 -7 3 2 9 22 14 -17 22 -108
23 -47 0 -84 5 -89 12 -12 16 -13 54 -1 61 5 4 6 11 3 17 -4 6 7 9 27 8 19 -1
67 -2 107 -1 l73 1 -3 36 c-1 19 -7 38 -13 42 -17 10 -264 8 -283 -3z"/>
<path d="M1124 1320 c-17 -6 -26 -29 -24 -60 0 -8 1 -97 2 -197 l2 -181 27 -6
c14 -3 36 -2 48 1 18 5 21 12 21 64 0 69 13 80 85 77 63 -2 75 -14 79 -78 2
-30 4 -57 5 -60 0 -3 22 -5 47 -5 l45 0 -2 75 c-1 43 -7 84 -15 97 -12 19 -12
24 2 37 11 12 15 36 13 102 -2 81 -3 86 -30 106 -17 13 -48 22 -81 25 -112 7
-207 9 -224 3z m230 -112 c19 -27 20 -48 4 -83 -11 -25 -15 -26 -85 -24 l-73
2 0 63 0 64 69 0 c61 0 72 -3 85 -22z"/>
<path d="M1622 1322 c-13 -2 -26 -10 -29 -17 -6 -16 -11 -382 -5 -406 5 -20
49 -42 57 -29 4 6 15 10 26 10 21 0 24 16 20 100 -1 25 3 52 9 60 8 12 17 7
51 -30 128 -143 132 -146 197 -134 37 7 40 16 12 44 -11 11 -20 23 -20 27 0 3
-7 13 -15 22 -8 9 -38 40 -65 70 -49 51 -50 54 -35 77 8 13 13 24 9 24 -4 0
11 17 32 39 49 48 74 79 74 90 0 5 7 14 15 21 22 19 7 28 -49 31 -48 3 -49 2
-87 -46 -70 -90 -103 -125 -115 -125 -8 0 -11 21 -9 68 3 94 -11 114 -73 104z"/>
<path d="M2089 1319 c-22 -13 -19 -342 4 -385 9 -17 13 -35 9 -39 -4 -3 -2 -5
3 -4 6 2 29 -1 52 -5 54 -10 179 -11 218 -2 45 10 80 95 74 176 -1 8 -3 67 -4
130 -1 64 -4 121 -8 126 -8 13 -75 5 -84 -9 -4 -7 -7 -83 -8 -170 -1 -172 -4
-181 -57 -174 -16 2 -28 -1 -28 -6 0 -14 -53 2 -70 22 -12 14 -15 49 -15 175
l0 157 -25 5 c-14 3 -30 7 -36 9 -6 2 -17 -1 -25 -6z"/>
<path d="M2624 1320 c-18 -7 -19 -19 -18 -219 1 -116 4 -214 7 -218 12 -12 76
-13 83 -2 4 7 8 40 8 73 l1 61 60 0 c33 0 67 -3 76 -7 19 -9 29 -60 17 -82 -6
-10 -5 -16 2 -16 6 0 9 -4 5 -9 -9 -16 34 -33 66 -26 l31 7 -4 69 c-2 40 1 69
7 69 5 0 0 7 -12 15 -23 16 -25 42 -4 55 17 10 16 167 -1 187 -22 27 -52 36
-132 40 -45 2 -102 5 -127 7 -25 1 -54 0 -65 -4z m220 -101 c-2 -4 1 -9 8 -11
14 -5 12 -76 -3 -94 -14 -17 -126 -15 -140 2 -8 10 -8 78 0 111 1 2 32 2 70 1
39 -1 68 -5 65 -9z"/>
<path d="M3109 1319 c-11 -6 -16 -426 -5 -436 9 -9 76 -10 82 -2 8 14 6 418
-3 431 -8 14 -56 18 -74 7z"/>
<path d="M3533 1322 c-15 -2 -23 -10 -23 -23 0 -13 -4 -18 -12 -13 -7 5 -8 3
-3 -6 6 -9 10 -214 6 -290 -1 -8 -11 -21 -22 -29 -18 -11 -26 -11 -48 1 -35
17 -41 27 -41 66 0 33 0 33 -42 30 l-43 -3 -1 -57 c0 -44 5 -65 20 -87 25 -36
31 -38 126 -36 78 2 130 19 130 42 0 7 4 13 9 13 8 0 13 90 13 250 -1 39 4 68
11 72 9 5 8 14 -5 35 -18 30 -41 41 -75 35z"/>
<path d="M2323 675 c-38 -11 -36 12 -34 -280 1 -206 -8 -264 -29 -187 -6 23
-15 42 -21 42 -6 0 -8 4 -5 9 4 5 2 11 -2 13 -7 3 -65 114 -67 128 0 3 -5 12
-10 20 -25 40 -55 103 -55 116 0 7 -5 14 -11 14 -5 0 -8 4 -5 9 3 5 -1 11 -9
15 -8 3 -15 12 -15 20 0 8 -8 28 -17 45 l-18 31 -107 0 -108 0 -1 -77 c-2
-304 0 -573 6 -582 3 -6 33 -11 66 -11 l59 0 0 244 c0 135 4 247 9 250 5 3 15
-14 22 -38 7 -25 16 -43 19 -41 8 5 35 -66 31 -80 -1 -5 1 -7 5 -2 4 4 15 -7
23 -25 9 -18 24 -45 33 -59 10 -14 19 -37 20 -51 1 -15 6 -24 10 -22 4 3 8 -1
8 -9 0 -8 7 -20 15 -27 8 -7 12 -17 9 -22 -4 -6 -3 -13 2 -17 5 -3 20 -27 33
-53 l24 -48 96 0 c53 0 102 4 109 8 9 7 12 80 10 333 l-3 324 -25 4 c-14 1
-27 6 -30 10 -3 3 -20 2 -37 -4z"/>
<path d="M2538 672 c-23 -3 -28 -9 -29 -30 0 -15 -2 -41 -3 -58 -2 -28 1 -32
36 -41 20 -6 35 -6 32 -1 -3 5 20 7 50 6 31 -2 56 -7 56 -11 0 -5 5 -5 10 -2
7 4 10 -87 10 -264 l0 -271 65 0 65 0 1 35 c0 19 1 137 1 261 0 187 3 228 16
240 11 12 32 14 92 10 l78 -4 4 41 c7 93 27 86 -230 89 -125 2 -239 2 -254 0z"/>
<path d="M20 335 l0 -335 218 0 c119 0 222 4 228 8 12 8 13 96 1 108 -4 4 -68
6 -142 5 -75 0 -144 3 -154 9 -15 8 -18 22 -18 85 l0 75 149 0 c146 0 149 0
157 23 5 13 7 35 4 50 l-5 27 -135 0 c-74 0 -143 5 -154 10 -16 9 -19 22 -19
74 0 49 4 65 16 70 9 3 81 6 160 6 157 0 147 -4 147 55 0 8 -1 26 -2 40 l-1
25 -225 0 -225 0 0 -335z"/>
<path d="M548 648 c-4 -22 3 -46 23 -93 5 -11 10 -29 12 -40 1 -11 5 -24 8
-30 7 -10 29 -77 34 -98 1 -7 9 -29 19 -49 9 -21 16 -49 16 -62 0 -14 9 -40
20 -58 11 -18 20 -45 20 -60 0 -16 5 -28 10 -28 6 0 10 -9 10 -20 0 -42 25
-101 45 -106 11 -3 56 -4 99 -2 77 3 80 4 96 33 9 17 17 43 18 59 1 17 8 33
15 38 6 4 8 8 4 8 -4 0 -3 9 3 21 7 11 14 33 16 47 8 44 25 92 34 92 4 0 8 10
8 23 0 24 46 175 67 222 8 17 17 51 21 78 l6 47 -66 0 c-60 0 -68 -2 -75 -22
-5 -13 -7 -26 -4 -31 2 -4 -3 -10 -11 -13 -10 -4 -16 -19 -16 -41 0 -18 -9
-53 -20 -75 -11 -23 -20 -51 -20 -63 0 -12 -3 -25 -7 -29 -5 -4 -8 -11 -9 -14
0 -4 -6 -20 -12 -35 -7 -16 -12 -37 -12 -48 0 -10 -4 -19 -8 -19 -5 0 -9 -15
-10 -32 0 -18 -5 -34 -11 -36 -5 -2 -8 -9 -5 -15 2 -7 -4 -13 -15 -14 -20 -2
-29 21 -34 84 0 12 -4 20 -8 17 -4 -2 -12 18 -20 44 -7 26 -13 49 -14 52 -4
11 -17 46 -26 68 -5 13 -9 34 -9 47 0 13 -5 27 -10 30 -6 4 -8 10 -5 15 3 5 0
12 -6 15 -5 4 -8 13 -5 21 3 8 1 14 -4 14 -6 0 -10 10 -10 23 -1 43 -22 57
-88 57 -55 0 -61 -2 -64 -22z"/>
<path d="M1225 657 c-3 -7 -4 -156 -3 -332 l3 -320 219 -3 c129 -1 224 2 229
7 5 5 7 33 3 63 l-7 53 -125 -3 c-70 -2 -141 -1 -159 2 l-34 7 2 79 1 80 151
0 c84 0 154 2 156 4 2 3 3 25 1 50 -3 34 -10 49 -24 57 -15 8 -19 8 -14 0 11
-17 -249 -14 -263 3 -11 13 -8 87 4 125 6 20 13 21 156 21 82 0 149 3 150 8 0
4 2 16 4 27 3 11 2 35 -1 53 l-6 32 -219 0 c-167 0 -221 -3 -224 -13z"/>
<path d="M3185 655 c-16 -7 -34 -11 -39 -7 -5 3 -6 0 -2 -6 4 -7 2 -12 -4 -12
-25 0 -41 -32 -47 -97 -8 -81 -9 -76 1 -135 5 -29 17 -54 32 -67 13 -12 25
-20 27 -19 1 0 18 -4 37 -10 19 -6 80 -13 135 -15 114 -6 135 -12 135 -37 0
-11 5 -22 10 -25 12 -7 13 -65 2 -80 -18 -26 -202 -50 -202 -26 0 5 -10 11
-22 13 -18 2 -24 11 -28 42 -5 39 -24 54 -60 51 -8 -1 -29 -3 -46 -3 -22 -2
-33 -8 -37 -22 -3 -11 -2 -22 2 -24 4 -3 8 -19 9 -38 4 -45 35 -102 58 -107
10 -2 23 -9 27 -17 6 -11 51 -14 227 -14 l220 0 0 161 c0 96 -4 158 -9 154 -5
-3 -12 4 -16 15 -4 11 -23 27 -43 36 -33 14 -75 20 -250 38 -65 7 -82 23 -82
75 0 58 38 81 136 81 74 0 104 -15 104 -53 0 -9 5 -17 11 -17 5 0 7 -4 4 -10
-4 -6 8 -10 27 -10 19 0 39 -5 46 -12 9 -9 12 -9 12 0 0 7 9 12 21 12 18 0 20
5 18 63 -3 83 -28 110 -124 126 -84 15 -250 12 -290 -4z"/>
</g>
</svg>
