<svg version="1.2" xmlns="http://www.w3.org/2000/svg" viewBox="0 0 36 36" width="36" height="36">
	<title>18764668-ai</title>
	<style>
		tspan { white-space:pre } 
		.s0 { fill: #337fff } 
		.s1 { fill: #ffffff } 
	</style>
	<g id="ELEMENTS">
		<g id="&lt;Group&gt;">
			<g id="&lt;Group&gt;">
				<g id="&lt;Group&gt;">
					<g id="&lt;Group&gt;">
						<path id="&lt;Path&gt;" class="s0" d="m35.7 17.9c0-9.8-7.9-17.7-17.7-17.7-9.8 0-17.7 7.9-17.7 17.7 0 8.8 6.5 16.1 14.9 17.4v-12.3h-4.4v-5.1h4.4v-3.9c0-4.5 2.7-6.9 6.7-6.9 2 0 4 0.3 4 0.3v4.4h-2.2c-2.2 0-2.9 1.3-2.9 2.7v3.4h4.9l-0.8 5.1h-4.1v12.3c8.4-1.3 14.9-8.6 14.9-17.4z"/>
						<path id="&lt;Path&gt;" class="s1" d="m24.9 23l0.8-5.1h-4.9v-3.4c0-1.4 0.7-2.7 2.9-2.7h2.2v-4.4c0 0-2-0.3-4-0.3-4 0-6.7 2.4-6.7 6.9v3.9h-4.4v5.1h4.4v12.3q1.4 0.3 2.8 0.3 1.4 0 2.8-0.3v-12.3z"/>
					</g>
				</g>
			</g>
		</g>
	</g>
</svg>