<svg version="1.2" xmlns="http://www.w3.org/2000/svg" viewBox="0 0 36 36" width="36" height="36">
	<title>18764668-ai</title>
	<defs>
		<linearGradient id="g1" x1="10.7" y1="-20.3" x2="60.6" y2="21.8" gradientUnits="userSpaceOnUse">
			<stop offset=".001" stop-color="#fbe18a"/>
			<stop offset=".209" stop-color="#fcbb45"/>
			<stop offset=".376" stop-color="#f75274"/>
			<stop offset=".524" stop-color="#d53692"/>
			<stop offset=".74" stop-color="#8f39ce"/>
			<stop offset="1" stop-color="#5b4fe9"/>
		</linearGradient>
	</defs>
	<style>
		tspan { white-space:pre } 
		.s0 { fill: url(#g1) } 
		.s1 { fill: #ffffff } 
	</style>
	<g id="ELEMENTS">
		<g id="&lt;Group&gt;">
			<g id="&lt;Group&gt;">
				<g id="&lt;Group&gt;">
					<path id="&lt;Path&gt;" class="s0" d="m35.7 18.4c0 9.8-7.9 17.7-17.7 17.7-9.8 0-17.7-7.9-17.7-17.7 0-9.7 7.9-17.6 17.7-17.6 9.8 0 17.7 7.9 17.7 17.6z"/>
					<g id="&lt;Group&gt;">
						<g id="&lt;Group&gt;">
							<path id="&lt;Path&gt;" class="s1" d="m23.5 11.8c-0.7 0-1.2 0.5-1.2 1.2 0 0.6 0.5 1.2 1.2 1.2 0.7 0 1.2-0.6 1.2-1.2 0-0.7-0.5-1.2-1.2-1.2z"/>
							<path id="&lt;Compound Path&gt;" fill-rule="evenodd" class="s1" d="m23.2 18.4c0 2.8-2.3 5.1-5.1 5.1-2.8 0-5.1-2.3-5.1-5.1 0-2.8 2.3-5.1 5.1-5.1 2.8 0 5.1 2.3 5.1 5.1zm-1.8 0c0-1.8-1.5-3.3-3.3-3.3-1.8 0-3.3 1.5-3.3 3.3 0 1.8 1.5 3.3 3.3 3.3 1.8 0 3.3-1.5 3.3-3.3z"/>
							<path id="&lt;Compound Path&gt;" fill-rule="evenodd" class="s1" d="m22.1 28.8h-8.2c-3.5 0-6.3-2.8-6.3-6.2v-8.3c0-3.5 2.8-6.3 6.3-6.3h8.2c3.5 0 6.3 2.8 6.3 6.3v8.3c0 3.4-2.8 6.2-6.3 6.2zm-8.2-18.8c-2.4 0-4.3 1.9-4.3 4.3v8.3c0 2.3 1.9 4.2 4.3 4.2h8.2c2.4 0 4.3-1.9 4.3-4.2v-8.3c0-2.4-1.9-4.3-4.3-4.3z"/>
						</g>
					</g>
				</g>
			</g>
		</g>
	</g>
</svg>