<svg version="1.2" xmlns="http://www.w3.org/2000/svg" viewBox="0 0 36 36" width="36" height="36">
	<title>18764668-ai</title>
	<style>
		tspan { white-space:pre } 
		.s0 { fill: #00d95f } 
		.s1 { fill: #ffffff } 
	</style>
	<g id="ELEMENTS">
		<g id="&lt;Group&gt;">
			<g id="&lt;Group&gt;">
				<g id="&lt;Group&gt;">
					<path id="&lt;Path&gt;" class="s0" d="m35.7 17.8c0 9.7-7.9 17.7-17.7 17.7-9.8 0-17.7-8-17.7-17.7 0-9.8 7.9-17.7 17.7-17.7 9.8 0 17.7 7.9 17.7 17.7z"/>
					<path id="&lt;Compound Path&gt;" fill-rule="evenodd" class="s1" d="m8.5 27.8l1.4-5.5c-0.8-1.5-1.2-3.2-1.2-4.9 0-5.6 4.5-10.2 10.1-10.2 5.6 0 10.2 4.6 10.2 10.2 0 5.6-4.6 10.1-10.2 10.1-1.7 0-3.3-0.4-4.8-1.2zm5.8-3.5l0.3 0.2c1.3 0.7 2.8 1.1 4.2 1.1 4.6 0 8.3-3.7 8.3-8.2 0-4.6-3.7-8.3-8.3-8.3-4.5 0-8.2 3.7-8.2 8.3 0 1.5 0.4 3 1.2 4.3l0.2 0.3-0.8 3.1z"/>
					<path id="&lt;Path&gt;" class="s1" d="m22.6 18.8c-0.4-0.3-1-0.5-1.5-0.3-0.3 0.1-0.6 0.7-0.8 1q-0.2 0.2-0.5 0.1-2.1-0.8-3.3-2.8c-0.1-0.2-0.1-0.4 0.1-0.6 0.2-0.2 0.5-0.6 0.6-0.9 0-0.4-0.1-0.8-0.3-1.2-0.2-0.4-0.4-1-0.9-1.3-0.3-0.2-0.9-0.1-1.2 0.2-0.6 0.5-0.9 1.3-0.9 2.1q0 0.3 0.1 0.6c0.1 0.5 0.3 1 0.6 1.4q0.3 0.5 0.6 1c0.8 1 1.7 1.9 2.8 2.6q0.9 0.5 1.8 0.8c0.7 0.3 1.3 0.5 2 0.4 0.8-0.2 1.5-0.7 1.9-1.4 0-0.2 0.1-0.5 0-0.7-0.1-0.5-0.7-0.8-1.1-1z"/>
				</g>
			</g>
		</g>
	</g>
</svg>